{"glyphs":{":":{"x_min":0,"x_max":240,"ha":240,"o":"m 213 528 b 233 528 252 544 255 563 b 259 583 246 599 226 599 b 206 599 188 583 184 563 b 181 544 194 528 213 528 z m 133 70 b 113 70 94 54 91 35 b 87 15 101 -1 120 -1 b 140 -1 159 15 162 35 b 166 54 152 70 133 70 z"},"?":{"x_min":0,"x_max":534,"ha":534,"o":"m 127 46 b 121 48 114 43 113 37 l 109 14 b 108 7 112 1 119 0 b 120 0 120 0 121 0 b 127 0 132 4 133 10 l 137 33 b 138 39 134 45 127 46 z m 240 700 b 162 700 88 658 41 596 b 37 590 38 583 43 579 b 48 575 56 576 60 581 l 60 581 b 103 638 171 676 240 676 b 332 675 395 611 395 523 b 395 513 394 502 392 491 b 374 387 274 301 170 301 b 163 301 158 296 158 289 b 158 289 158 289 158 289 b 158 288 158 288 157 287 l 135 158 b 133 151 138 145 144 144 b 145 144 146 144 146 144 b 152 144 157 148 158 154 l 180 278 b 293 283 396 374 416 486 b 418 499 419 511 419 523 b 419 573 401 617 369 649 b 337 681 292 700 240 700 z"},"<":{"x_min":0,"x_max":620,"ha":620,"o":"m 457 697 l 65 362 b 64 361 64 360 63 359 b 63 358 62 358 62 357 b 61 356 61 356 61 355 b 61 354 60 353 60 352 b 60 351 60 350 60 350 b 60 349 60 347 61 346 b 61 345 61 345 61 345 b 62 343 62 342 63 341 l 337 6 b 340 2 344 0 348 0 b 352 0 355 1 358 4 b 364 9 365 18 360 25 l 96 349 l 476 674 b 483 679 483 689 478 695 b 473 701 463 702 457 697 z"},"'":{"x_min":0,"x_max":230,"ha":230,"o":"m 71 622 b 71 619 74 616 77 616 l 80 616 b 114 625 118 655 118 671 l 118 681 b 117 681 117 682 117 683 b 114 693 104 701 94 701 b 80 701 68 689 68 675 b 68 662 80 651 94 651 l 99 651 b 96 642 89 634 76 631 b 72 629 69 626 71 622 z"},"=":{"x_min":0,"x_max":620,"ha":620,"o":"m 441 204 l 93 204 b 85 204 79 199 79 192 b 79 184 85 178 93 178 l 441 178 b 448 178 455 184 455 192 b 455 199 448 204 441 204 z m 477 414 l 130 414 b 123 414 116 409 116 401 b 116 394 123 389 130 389 l 477 389 b 486 389 492 394 492 401 b 492 409 486 414 477 414 z"},"a":{"x_min":0,"x_max":619,"ha":619,"o":"m 232 2 b 322 3 407 56 458 133 l 438 17 b 436 10 441 4 448 3 b 448 3 449 3 450 3 b 456 3 461 7 462 13 l 502 243 b 502 243 502 243 502 243 b 502 243 502 243 502 243 l 543 474 b 544 481 540 487 533 488 b 526 490 520 485 519 478 l 496 354 b 487 384 472 410 453 430 b 419 467 370 489 314 488 b 187 488 68 381 44 248 b 41 232 40 217 40 202 b 40 147 60 96 94 61 b 127 24 176 2 232 2 z m 69 243 b 90 364 201 463 313 463 b 314 463 314 463 314 463 b 413 463 481 390 481 289 b 481 275 480 262 478 248 b 457 126 345 27 232 28 b 133 28 66 101 65 202 b 65 216 66 229 69 243 z"},"L":{"x_min":0,"x_max":619,"ha":619,"o":"m 239 702 b 232 703 225 699 224 692 l 105 17 b 104 10 109 4 116 2 b 116 2 117 2 118 2 b 118 2 119 2 119 2 b 119 2 120 2 120 2 l 491 2 b 498 2 504 8 504 15 b 504 22 498 27 491 27 l 133 27 l 249 687 b 250 694 246 701 239 702 z"},"3":{"x_min":0,"x_max":610,"ha":610,"o":"m 333 465 l 576 676 b 578 677 579 679 580 681 b 581 683 582 685 582 687 b 584 694 579 700 572 700 l 233 700 b 226 700 219 694 218 687 b 216 680 221 674 228 674 l 537 674 l 298 466 b 292 461 291 452 295 447 b 295 447 296 447 296 446 b 298 442 302 440 307 440 b 360 440 409 420 442 380 b 475 339 486 286 476 234 b 467 180 437 127 390 87 b 342 46 285 26 232 26 b 179 26 130 46 97 86 b 92 91 84 91 78 86 b 72 81 71 73 75 68 b 112 22 168 0 228 0 b 228 0 228 0 228 0 b 287 0 351 23 405 68 b 459 114 492 174 502 234 b 513 293 501 353 463 398 b 431 438 384 460 333 465 z"},";":{"x_min":0,"x_max":240,"ha":240,"o":"m 213 615 b 237 615 259 634 262 657 b 266 680 251 698 229 698 b 205 698 184 680 179 657 b 176 634 190 615 213 615 z m 156 53 b 156 53 156 53 156 53 b 156 53 154 54 154 54 b 154 71 141 85 120 85 b 98 85 75 67 71 44 b 68 22 83 3 105 3 b 109 3 112 4 116 6 b 109 -10 95 -24 71 -30 b 64 -31 59 -39 59 -45 b 59 -51 64 -55 69 -55 b 70 -55 71 -55 73 -55 b 132 -40 149 11 153 35 b 154 45 156 52 156 53 b 156 53 156 53 156 53 z"},"J":{"x_min":0,"x_max":594,"ha":594,"o":"m 68 168 b 67 175 61 180 54 179 b 47 178 42 171 43 164 b 56 70 134 0 238 0 b 238 0 239 0 239 0 b 368 1 488 103 511 231 l 591 685 b 592 692 588 699 581 700 b 574 701 567 697 566 690 l 486 236 b 466 120 354 25 239 26 b 146 26 80 85 68 168 z"},"V":{"x_min":0,"x_max":750,"ha":750,"o":"m 645 699 b 639 703 631 701 627 695 l 240 46 l 82 691 b 80 698 74 702 67 700 b 60 699 56 692 57 685 l 223 10 b 223 9 224 7 225 6 b 225 6 225 6 225 6 b 226 5 227 4 228 3 b 228 3 228 3 229 3 b 229 2 229 2 230 2 b 230 2 231 2 231 1 b 232 1 233 1 235 1 b 235 1 235 1 235 1 b 235 1 235 1 235 1 b 235 1 235 1 235 1 b 235 1 235 1 235 1 b 236 1 237 1 238 1 b 238 1 238 1 238 1 b 240 2 241 2 242 3 b 242 3 243 3 243 4 b 244 5 245 6 246 7 l 649 682 b 653 688 651 695 645 699 z"},"\"":{"x_min":0,"x_max":410,"ha":410,"o":"m 115 693 b 115 696 112 699 109 699 l 106 699 b 72 690 68 660 68 644 l 68 643 l 68 640 l 68 634 b 68 633 68 632 69 632 b 72 621 81 614 92 614 b 106 614 118 626 118 640 b 118 653 106 664 92 664 b 90 664 88 664 86 663 b 90 672 96 680 110 684 b 114 686 117 689 115 693 z m 189 693 b 189 696 186 699 183 699 l 180 699 b 146 690 142 660 142 644 l 142 640 l 142 636 l 142 634 b 142 633 142 632 143 632 b 146 621 155 614 166 614 b 180 614 192 626 192 640 b 192 653 180 664 166 664 b 164 664 162 664 160 663 b 164 672 170 680 184 684 b 188 686 191 689 189 693 z"},"7":{"x_min":0,"x_max":587,"ha":587,"o":"m 493 680 b 493 681 493 682 494 683 b 494 684 494 684 494 685 b 494 685 494 686 494 686 b 494 686 494 687 494 687 b 494 688 494 689 494 690 b 493 691 493 691 493 692 b 492 693 492 693 491 694 b 491 695 490 695 489 696 b 489 696 489 697 488 697 b 488 697 488 697 487 697 b 487 698 486 698 485 698 b 484 698 483 698 483 698 b 482 699 482 699 482 699 l 91 699 b 84 699 78 693 78 686 b 78 679 84 673 91 673 l 459 673 l 68 18 b 64 12 66 4 72 0 b 74 -1 76 -1 79 -1 b 83 -1 87 1 89 5 l 493 679 b 493 680 493 680 493 680 z"},"S":{"x_min":0,"x_max":667,"ha":667,"o":"m 69 99 l 69 99 b 118 53 201 -1 305 -1 l 305 -1 b 442 -1 570 80 590 186 l 590 186 b 600 239 579 281 539 310 l 539 310 b 499 340 442 360 373 373 l 371 374 l 371 374 b 309 386 258 404 225 429 l 225 429 b 192 454 178 485 185 525 l 185 525 b 192 566 221 603 264 631 l 264 631 b 307 659 363 677 422 677 l 422 677 b 505 677 561 636 610 599 l 610 599 b 615 596 622 598 627 603 l 627 603 b 631 608 631 615 626 618 l 626 618 l 626 618 b 577 655 516 699 426 699 l 426 699 b 300 699 180 624 162 525 l 162 525 b 153 476 173 438 210 410 l 210 410 b 246 382 300 364 363 352 l 365 351 l 365 351 b 432 339 487 319 523 292 l 523 292 b 559 264 575 231 568 186 l 568 186 b 560 142 528 101 481 71 l 481 71 b 435 41 373 22 309 22 l 309 22 b 213 22 132 72 86 117 l 86 117 b 82 120 75 120 70 115 l 70 115 b 65 110 65 103 69 99 z"},"}":{"x_min":0,"x_max":480,"ha":480,"o":"m 225 697 b 214 699 205 701 203 689 b 201 681 207 677 212 675 b 351 637 378 589 361 490 l 347 415 b 332 326 363 293 426 271 b 360 252 312 216 297 127 l 283 52 b 266 -47 221 -95 70 -133 b 63 -135 57 -138 55 -146 b 53 -158 64 -157 75 -155 b 250 -121 293 -57 311 46 l 325 125 b 339 203 371 252 474 252 b 490 252 499 260 501 271 b 503 282 496 290 480 290 b 377 290 363 339 377 417 l 391 496 b 409 599 388 663 225 697 z"},"Z":{"x_min":0,"x_max":667,"ha":667,"o":"m 577 25 l 112 25 l 705 679 b 705 679 705 680 706 680 b 706 681 707 682 707 683 b 708 684 708 684 708 685 b 708 686 708 687 708 687 b 708 687 708 687 708 687 b 708 688 708 689 707 690 b 707 691 707 692 707 692 b 707 693 706 693 706 694 b 705 695 705 696 704 696 b 704 696 704 696 704 697 b 703 697 703 697 702 698 b 702 698 701 699 700 699 b 699 699 698 699 697 699 b 697 700 696 700 695 700 l 202 700 b 195 700 190 694 190 687 b 190 680 195 674 202 674 l 667 674 l 74 21 b 74 21 73 20 73 19 b 73 19 72 18 72 17 b 71 16 71 15 71 14 b 71 14 71 13 71 12 b 71 12 71 12 71 12 b 71 11 71 10 71 9 b 72 9 72 8 72 7 b 72 7 73 6 73 5 b 74 5 74 4 75 3 b 75 3 75 3 75 3 b 76 3 76 2 77 2 b 78 1 78 1 79 1 b 80 0 82 0 83 0 b 83 0 83 0 83 0 b 83 0 83 0 83 0 l 577 0 b 584 0 589 5 589 12 b 589 19 584 25 577 25 z"},"x":{"x_min":0,"x_max":570,"ha":570,"o":"m 430 18 l 307 243 l 510 467 b 514 472 514 480 509 485 b 504 489 496 489 491 484 l 294 264 l 175 481 b 171 487 164 490 158 486 b 152 483 149 475 153 469 l 276 245 l 71 21 b 67 16 67 8 72 3 b 75 1 78 0 81 0 b 84 0 88 1 90 4 l 289 223 l 408 6 b 410 2 414 0 419 0 b 421 0 423 0 425 1 b 431 5 433 12 430 18 z"},")":{"x_min":0,"x_max":430,"ha":430,"o":"m 302 640 b 280 679 242 703 192 702 b 185 702 179 697 179 690 b 179 683 185 677 192 677 b 234 677 261 659 280 627 b 299 595 309 547 309 489 b 309 448 304 403 295 355 b 279 263 252 180 214 121 b 176 62 130 28 73 28 b 66 28 60 22 60 15 b 60 8 66 2 73 2 b 73 2 73 2 73 2 b 141 2 195 44 236 107 b 276 170 304 256 320 350 b 329 399 334 446 334 489 b 334 550 325 602 302 640 z"},"&":{"x_min":0,"x_max":696,"ha":696,"o":"m 576 415 b 569 414 564 408 564 401 b 564 399 564 396 564 393 b 563 328 521 309 481 308 b 479 308 477 308 475 308 b 463 309 451 310 440 310 b 352 310 302 283 274 251 b 247 219 243 183 243 166 b 243 159 244 155 244 155 b 245 149 250 144 256 144 b 257 144 258 144 258 144 b 265 145 270 151 269 158 l 269 158 b 269 158 269 161 269 166 b 269 179 272 209 294 235 b 315 260 357 284 440 284 b 451 284 462 284 473 283 b 475 283 477 283 478 283 b 479 277 479 270 479 264 b 479 253 478 241 476 229 b 457 119 350 27 239 28 b 141 28 75 97 74 190 b 74 201 75 213 77 225 b 91 304 150 374 224 406 b 225 407 227 408 228 410 b 228 410 229 410 229 410 b 234 416 233 424 227 428 b 203 448 188 478 188 514 b 188 522 189 530 190 538 b 203 614 278 677 354 677 b 421 677 466 630 466 566 b 466 559 466 551 464 542 b 463 536 468 529 475 528 b 481 527 488 531 489 538 b 491 548 492 557 492 566 b 492 605 478 639 453 663 b 428 688 394 702 354 702 b 264 702 182 631 165 542 b 164 533 163 523 163 514 b 163 478 176 446 198 422 b 124 383 67 312 52 229 b 50 216 49 203 49 190 b 49 137 69 90 102 56 b 136 23 184 2 239 2 b 363 3 479 101 501 225 b 503 238 505 251 505 264 b 505 271 504 278 503 285 b 521 288 539 295 554 307 b 575 325 590 354 589 393 b 589 396 589 399 589 403 b 589 409 583 415 576 415 z"},"_":{"x_min":0,"x_max":600,"ha":600,"o":"m -3 -160 l 331 -160 b 343 -160 354 -155 357 -143 b 359 -131 350 -126 338 -126 l 4 -126 b -8 -126 -19 -131 -21 -143 b -24 -155 -15 -160 -3 -160 z"},"v":{"x_min":0,"x_max":582,"ha":582,"o":"m 463 487 b 457 490 449 489 445 483 l 185 46 l 79 479 b 77 486 70 490 64 488 b 57 487 53 480 54 473 l 168 10 b 169 9 169 7 170 6 b 170 6 171 6 171 5 b 172 4 173 4 174 3 b 174 3 174 3 174 3 b 174 2 175 2 175 2 b 176 2 176 1 177 1 b 178 1 179 1 180 1 b 180 1 180 1 180 1 b 181 1 182 1 183 1 b 183 1 183 1 183 1 b 185 1 186 2 188 3 b 188 3 188 3 188 4 b 189 4 190 6 191 7 l 467 470 b 471 476 469 483 463 487 z"},"O":{"x_min":0,"x_max":850,"ha":850,"o":"m 468 699 b 286 699 113 544 79 351 b 75 329 73 308 73 287 b 73 205 101 133 150 82 b 199 30 268 -1 349 -1 b 532 0 704 155 739 347 b 743 369 744 391 744 412 b 744 493 716 565 667 616 b 619 668 549 699 468 699 z m 714 351 b 682 171 517 24 349 24 b 201 25 99 136 98 287 b 98 306 100 326 104 347 b 135 527 300 674 467 674 b 468 674 468 674 468 674 b 616 673 719 562 719 412 b 719 392 717 372 714 351 z"},"(":{"x_min":0,"x_max":430,"ha":430,"o":"m 332 702 b 264 702 209 661 169 598 b 129 535 101 449 84 355 b 75 305 71 258 71 216 b 71 155 80 103 103 65 b 125 26 162 2 212 2 b 212 2 213 2 213 2 b 220 2 226 8 226 15 b 226 22 220 28 213 28 l 213 28 b 171 28 144 45 124 77 b 105 110 96 158 96 216 b 96 256 101 302 109 350 b 125 442 153 525 190 584 b 228 643 275 677 332 677 b 339 677 344 683 344 690 b 344 697 339 702 332 702 z"},"C":{"x_min":0,"x_max":719,"ha":719,"o":"m 378 -2 b 462 -2 544 26 613 73 b 619 77 621 85 617 91 b 613 96 605 98 599 94 l 599 94 b 534 49 456 23 378 23 b 212 23 98 138 98 290 b 98 308 100 327 103 345 b 134 525 312 673 497 672 b 575 672 643 646 691 602 b 697 597 705 598 709 603 b 714 608 713 616 708 621 b 655 669 581 698 497 698 b 299 697 112 543 78 350 b 74 329 73 310 73 290 b 73 207 104 134 158 81 b 213 29 289 -2 378 -2 z"},"W":{"x_min":0,"x_max":1102,"ha":1102,"o":"m 1068 698 b 1062 702 1054 700 1051 694 l 663 45 l 550 510 b 548 516 542 520 536 519 b 531 520 526 518 523 513 l 244 45 l 86 690 b 84 697 77 701 70 699 b 64 698 60 691 61 684 l 226 9 b 227 8 228 6 228 5 b 229 5 229 5 229 5 b 230 4 231 3 232 2 b 232 2 232 2 232 2 b 233 1 233 1 234 1 b 234 1 235 1 235 0 b 236 0 237 0 238 0 b 239 0 239 0 239 0 b 240 0 241 0 242 0 b 242 0 242 0 242 0 b 243 1 245 1 246 2 b 246 2 246 2 247 3 b 248 4 249 5 250 6 l 531 477 l 646 9 b 646 8 647 6 648 5 b 648 5 648 5 649 5 b 649 4 650 3 651 2 b 652 2 652 2 652 2 b 652 1 653 1 653 1 b 654 1 654 1 655 0 b 656 0 657 0 658 0 b 658 0 658 0 658 0 b 659 0 660 0 661 0 b 661 0 661 0 661 0 b 663 1 664 1 666 2 b 666 2 666 2 666 3 b 667 4 668 5 669 6 l 1072 681 b 1076 687 1074 694 1068 698 z"},"A":{"x_min":0,"x_max":646,"ha":646,"o":"m 63 1 b 65 0 68 0 70 0 b 74 0 78 2 81 6 l 181 188 l 531 188 l 566 10 b 567 4 573 0 579 0 b 580 0 580 0 581 0 b 588 1 592 8 591 15 l 457 689 b 455 696 450 700 444 699 b 439 700 434 698 431 693 l 59 18 b 55 12 57 5 63 1 z m 438 653 l 526 213 l 195 213 l 438 653 z"},"f":{"x_min":0,"x_max":362,"ha":362,"o":"m 320 700 b 281 700 248 692 222 668 b 197 644 182 609 173 559 l 161 493 l 81 493 b 74 493 67 487 66 480 b 65 473 70 467 77 467 l 157 467 l 77 13 b 76 6 80 0 87 0 b 94 0 101 6 102 13 l 182 467 l 266 467 b 273 467 280 473 281 480 b 283 487 278 493 271 493 l 187 493 l 199 559 b 207 606 221 635 238 651 b 255 667 280 675 316 675 b 323 675 329 681 331 688 b 332 695 327 700 320 700 z"},"Q":{"x_min":0,"x_max":844,"ha":844,"o":"m 770 353 b 804 550 682 710 498 710 b 312 710 134 550 100 353 b 66 158 187 0 372 0 b 374 0 378 0 380 0 l 224 -66 b 217 -68 214 -78 215 -84 b 216 -87 217 -89 220 -90 b 223 -94 228 -94 233 -91 l 233 -91 b 233 -91 237 -90 243 -88 b 258 -81 299 -66 342 -66 b 371 -66 401 -72 429 -91 b 479 -124 532 -149 595 -149 b 595 -149 595 -149 595 -149 b 644 -149 700 -132 761 -90 b 767 -85 769 -78 767 -71 b 763 -66 754 -65 748 -68 b 691 -110 643 -124 599 -124 b 545 -124 495 -101 446 -68 b 414 -47 379 -41 347 -41 l 505 26 b 635 81 744 207 770 353 z m 125 353 b 158 537 322 683 493 683 b 663 683 776 537 745 353 b 711 172 547 25 377 25 b 207 25 94 172 125 353 z"},"w":{"x_min":0,"x_max":861,"ha":861,"o":"m 759 486 b 753 490 745 488 742 482 l 480 43 l 403 354 b 402 360 397 363 391 363 b 386 364 381 362 378 357 l 190 43 l 84 478 b 82 485 75 489 69 487 b 62 486 58 479 59 472 l 173 7 b 174 6 174 4 175 3 b 175 3 176 3 176 3 b 177 2 178 1 179 0 b 179 0 179 0 179 0 b 179 -1 180 -1 180 -1 b 181 -1 181 -1 182 -2 b 183 -2 184 -2 185 -2 b 185 -2 185 -2 185 -2 b 186 -2 187 -2 188 -2 b 188 -2 188 -2 189 -2 b 190 -1 191 -1 193 0 b 193 0 193 0 193 1 b 194 2 195 3 196 4 l 386 321 l 462 7 b 463 6 463 4 464 3 b 465 3 465 3 465 2 b 466 1 467 1 468 0 b 468 0 468 0 468 0 b 469 -1 469 -1 470 -1 b 470 -1 470 -1 471 -2 b 472 -2 473 -2 474 -2 b 475 -2 475 -2 475 -2 b 476 -2 477 -2 478 -2 b 478 -2 478 -2 478 -2 b 479 -1 480 -1 482 0 b 482 0 482 0 482 1 b 484 2 485 3 485 4 l 763 469 b 767 475 765 482 759 486 z"},"-":{"x_min":0,"x_max":408,"ha":408,"o":"m 76 340 l 76 340 l 304 340 l 304 340 b 310 340 313 343 313 349 l 313 349 b 313 355 310 360 304 360 l 76 360 l 76 360 b 70 360 66 355 66 349 l 66 349 b 66 343 70 340 76 340 z"},"E":{"x_min":0,"x_max":593,"ha":593,"o":"m 115 1 b 116 1 117 1 118 1 b 118 1 118 1 119 1 b 119 1 119 1 120 1 l 491 1 b 498 1 504 6 504 13 b 504 20 498 26 491 26 l 133 26 l 188 338 l 507 338 b 514 338 520 344 520 351 b 520 358 514 363 507 363 l 192 363 l 247 675 l 610 675 b 617 675 623 681 623 688 b 623 695 617 701 610 701 l 239 701 b 238 701 238 700 238 700 b 231 701 225 697 224 690 l 105 15 b 104 9 109 2 115 1 z"},"s":{"x_min":0,"x_max":492,"ha":492,"o":"m 56 71 l 56 71 b 90 39 148 1 221 1 l 221 1 b 315 1 407 58 421 135 l 421 135 b 428 173 412 202 385 223 l 385 223 b 357 244 316 257 269 267 l 267 267 l 267 267 b 227 275 192 287 170 304 l 170 304 b 149 321 139 340 144 366 l 144 366 b 148 392 167 416 196 435 l 196 435 b 224 453 261 465 300 465 l 300 465 b 355 465 393 438 427 413 l 427 413 b 432 409 440 411 445 417 l 445 417 b 450 422 449 430 444 434 l 444 434 l 444 434 b 410 459 368 490 305 490 l 305 490 b 217 490 132 438 119 366 l 119 366 b 112 331 127 302 153 283 l 153 283 b 179 263 216 251 259 242 l 260 242 l 260 242 b 306 233 343 220 367 202 l 367 202 b 391 184 401 163 396 135 l 396 135 b 391 106 371 79 339 59 l 339 59 b 309 39 267 26 225 26 l 225 26 b 161 26 106 60 75 90 l 75 90 b 71 95 63 94 57 88 l 57 88 b 52 83 51 75 56 71 z"},">":{"x_min":0,"x_max":620,"ha":620,"o":"m 512 354 b 512 355 512 356 512 357 b 512 357 511 358 511 358 b 510 360 510 361 509 362 l 236 697 b 230 703 221 704 215 699 b 208 694 207 684 212 678 l 477 354 l 96 29 b 90 23 89 14 95 8 b 97 4 102 2 106 2 b 109 2 113 4 116 6 l 507 341 b 508 342 509 343 510 344 b 510 345 511 345 511 346 b 511 347 511 348 512 349 b 512 350 512 350 512 351 b 512 352 512 353 512 354 z"},"l":{"x_min":0,"x_max":249,"ha":249,"o":"m 235 699 b 228 700 222 695 221 689 l 102 14 b 100 7 105 0 112 -1 b 113 -1 113 -1 114 -1 b 120 -1 126 3 127 10 l 246 684 b 247 691 242 698 235 699 z"},"8":{"x_min":0,"x_max":630,"ha":630,"o":"m 378 434 b 429 456 469 503 479 558 b 481 566 481 574 481 582 b 482 615 469 644 448 665 b 427 686 397 699 363 699 b 287 698 216 638 202 562 l 202 562 b 201 554 200 546 200 538 b 200 506 212 476 233 455 b 241 447 250 441 260 436 b 161 411 77 326 58 223 b 56 210 55 197 55 184 b 55 132 74 85 108 52 b 142 19 189 -1 244 -1 b 367 -1 482 97 504 219 b 506 232 507 245 507 258 b 507 310 488 357 454 390 b 433 410 408 426 378 434 z m 225 538 b 225 545 225 551 227 558 l 214 560 l 227 558 b 237 621 300 674 363 674 b 419 673 456 635 457 582 b 457 576 456 569 455 562 b 444 499 382 446 319 447 b 263 447 225 486 225 538 z m 479 223 b 460 114 354 23 244 24 b 147 24 80 92 80 184 b 80 196 81 207 83 219 l 71 221 l 83 219 b 102 328 208 419 318 418 b 415 418 482 350 482 258 b 482 246 481 235 479 223 z"},"\\":{"x_min":0,"x_max":500,"ha":500,"o":"m 312 2 b 318 5 321 12 318 19 l 318 19 l 35 691 b 33 697 25 701 19 698 l 19 698 b 13 696 9 688 11 682 l 11 682 l 296 9 b 297 4 302 1 307 1 l 307 1 b 308 1 311 1 312 2 l 312 2 z"},"e":{"x_min":0,"x_max":609,"ha":609,"o":"m 58 203 b 58 146 78 95 114 59 b 149 22 199 0 258 0 b 340 1 419 44 473 110 b 477 115 476 123 471 128 b 465 132 457 131 453 126 l 453 126 b 404 65 331 26 258 26 b 154 26 83 101 83 203 b 83 216 84 230 87 242 b 87 244 87 245 88 247 l 524 247 b 529 247 534 251 536 256 b 536 257 537 259 537 260 b 538 269 538 278 538 287 b 538 344 518 395 482 431 b 447 468 397 490 339 489 b 209 489 86 381 62 247 b 59 233 58 218 58 203 z m 339 464 b 442 464 513 389 513 287 b 513 282 513 277 512 272 l 94 272 b 127 380 232 465 339 464 z"},"b":{"x_min":0,"x_max":660,"ha":660,"o":"m 105 0 b 106 0 106 0 107 0 b 113 0 118 4 119 10 l 141 135 b 151 106 167 79 188 58 b 223 21 273 -1 331 -1 b 463 0 585 108 609 241 l 596 244 l 609 241 b 611 256 613 273 613 287 b 613 343 593 394 557 430 b 521 468 471 490 413 490 b 321 489 234 435 181 357 l 240 686 b 242 693 237 699 230 700 b 223 701 217 697 215 690 l 135 246 b 135 246 135 246 135 246 b 135 246 135 246 135 246 l 95 14 b 93 7 98 1 105 0 z m 412 463 b 413 463 413 463 413 463 b 516 463 587 388 587 287 b 587 274 586 260 584 246 l 584 246 b 563 125 447 24 331 25 b 228 25 158 101 157 202 b 157 215 158 228 161 241 b 183 364 296 463 412 463 z"},"m":{"x_min":0,"x_max":951,"ha":951,"o":"m 831 15 b 830 8 834 1 841 0 b 842 0 843 0 843 0 b 849 0 855 4 856 10 l 905 291 b 907 303 908 314 908 325 b 908 372 891 412 861 442 b 831 471 789 489 741 489 b 656 489 576 436 536 363 b 529 394 514 420 494 442 b 464 471 422 489 373 489 b 300 489 230 449 186 392 l 201 474 b 202 481 198 488 191 489 b 184 490 178 486 176 479 l 144 296 b 144 296 144 295 144 295 l 94 15 b 93 8 98 1 105 0 b 105 0 105 0 105 0 l 105 0 b 105 0 106 0 107 0 b 107 0 108 0 108 0 b 109 0 110 0 110 1 b 111 1 112 1 113 2 b 113 2 114 2 114 3 b 115 3 116 4 117 5 b 117 5 117 6 117 6 b 118 7 119 9 119 10 l 169 292 b 186 387 278 464 373 464 b 458 463 514 405 514 325 b 514 316 514 307 512 298 b 512 297 512 296 511 295 l 463 15 b 462 8 466 1 473 0 b 473 0 473 0 473 0 b 473 0 473 0 473 0 b 474 0 475 0 476 0 b 476 0 477 0 477 0 b 478 0 478 0 479 1 b 483 2 487 5 488 10 l 536 291 b 537 292 537 293 537 294 b 555 388 647 464 741 464 b 825 463 883 405 883 325 b 883 316 882 306 880 295 l 831 15 z"},",":{"x_min":0,"x_max":230,"ha":230,"o":"m 57 -25 b 57 -28 60 -31 63 -31 l 66 -31 b 100 -22 104 8 104 24 l 104 34 b 103 34 103 35 103 36 b 100 46 90 54 80 54 b 66 54 54 42 54 28 b 54 15 66 4 80 4 l 85 4 b 82 -4 75 -12 62 -16 b 58 -18 55 -21 57 -25 z"},"n":{"x_min":0,"x_max":613,"ha":613,"o":"m 464 13 b 463 6 467 -1 474 -2 b 475 -2 476 -2 476 -2 b 482 -2 489 2 490 8 l 538 291 b 540 303 541 313 541 324 b 541 371 524 413 495 442 b 464 471 422 489 375 489 b 300 489 230 449 186 392 l 201 474 b 202 481 197 488 191 489 b 184 490 177 486 176 479 l 144 296 b 144 295 144 295 144 295 l 94 13 b 93 6 97 -1 104 -2 b 104 -2 104 -2 104 -2 l 104 -2 b 105 -2 106 -2 106 -2 b 107 -2 108 -2 108 -2 b 109 -2 109 -2 110 -1 b 111 -1 112 -1 113 0 b 113 0 114 0 114 1 b 115 1 116 2 116 3 b 117 3 117 4 117 4 b 118 5 119 7 119 8 l 168 291 b 185 386 278 464 375 464 b 458 463 517 405 517 324 b 517 315 516 305 514 295 l 464 13 z"},"h":{"x_min":0,"x_max":613,"ha":613,"o":"m 94 13 b 93 6 97 -1 104 -2 b 105 -2 106 -2 107 -2 b 107 -2 108 -2 108 -2 b 109 -2 109 -2 110 -1 b 111 -1 112 -1 113 0 b 113 0 114 0 114 1 b 115 1 116 2 116 3 b 117 3 117 4 117 4 b 118 5 118 6 119 7 b 119 8 119 8 119 9 l 119 9 l 169 289 b 185 386 279 465 375 465 b 460 464 518 405 519 324 b 519 314 518 304 516 294 l 466 13 b 465 6 469 -1 476 -2 b 477 -2 478 -2 479 -2 b 485 -2 490 2 491 9 l 541 289 b 543 301 544 313 544 324 b 544 371 527 413 497 442 b 467 472 424 490 375 490 b 301 490 231 450 187 391 l 238 683 b 239 690 235 697 228 698 b 221 699 214 694 213 688 l 144 294 b 144 294 144 294 144 294 l 94 13 z"},"z":{"x_min":0,"x_max":554,"ha":554,"o":"m 509 475 b 509 476 509 477 509 477 b 509 477 509 477 509 478 b 509 478 509 479 509 480 b 509 481 509 482 508 482 b 508 483 507 483 507 484 b 507 485 506 486 505 486 b 505 486 505 486 505 487 b 505 487 504 487 504 487 b 503 488 502 489 501 489 b 500 489 500 489 499 489 b 498 490 497 490 497 490 l 156 490 b 149 490 143 484 143 477 b 143 470 149 465 156 465 l 468 465 l 65 20 b 64 19 64 19 64 18 b 63 17 63 17 62 16 b 62 15 62 14 62 13 b 62 12 61 12 61 11 b 61 11 62 11 62 11 b 62 10 62 9 62 8 b 62 7 62 7 63 6 b 63 6 63 5 64 4 b 64 4 65 3 65 2 b 65 2 65 2 66 2 b 66 1 67 1 68 1 b 68 0 69 0 69 0 b 71 -1 72 -1 74 -1 l 74 -1 l 74 -1 l 415 -1 b 422 -1 427 4 427 11 b 427 18 422 24 415 24 l 102 24 l 506 469 b 506 469 507 470 507 470 b 507 471 508 472 508 473 b 509 474 509 474 509 475 z"},"B":{"x_min":0,"x_max":594,"ha":594,"o":"m 115 -2 b 116 -2 117 -2 117 -2 b 118 -2 118 -2 119 -2 b 119 -2 120 -2 120 -2 l 324 -2 b 431 -2 531 83 550 190 b 552 202 553 213 553 224 b 553 270 536 311 507 340 b 485 361 458 376 426 383 b 482 411 526 465 538 528 b 539 538 540 548 540 557 b 540 597 525 632 500 657 b 475 683 439 698 397 698 l 239 698 b 239 698 238 697 238 697 b 231 698 225 694 224 687 l 105 12 b 104 6 108 -1 115 -2 z m 528 224 b 528 214 527 204 525 194 b 509 100 417 23 324 23 l 132 23 l 192 361 l 388 361 b 471 361 527 303 528 224 z m 247 672 l 397 672 b 467 672 514 623 515 557 b 515 549 514 541 513 532 b 499 453 422 387 343 388 l 197 388 l 247 672 z"},"K":{"x_min":0,"x_max":715,"ha":715,"o":"m 224 691 l 105 16 b 104 9 109 3 116 1 b 116 1 117 1 118 1 b 124 1 129 5 130 12 l 164 199 b 165 200 166 201 167 202 l 370 374 l 608 7 b 611 3 615 1 619 1 b 621 1 624 2 626 3 b 632 7 633 15 630 21 l 390 391 l 729 679 b 734 683 735 691 730 697 b 726 702 718 703 712 698 l 170 237 l 249 686 b 251 693 246 700 239 701 b 232 702 226 698 224 691 z"},"R":{"x_min":0,"x_max":625,"ha":625,"o":"m 590 504 b 592 516 593 527 593 538 b 593 584 576 625 546 654 b 517 683 475 701 427 701 l 224 701 b 224 701 223 701 223 701 b 217 701 211 697 210 690 l 91 16 b 90 9 94 2 101 1 b 102 1 103 1 104 1 b 110 1 115 5 116 11 l 169 312 l 362 312 b 365 311 371 310 382 306 b 401 300 429 289 452 268 b 475 248 492 221 492 180 b 492 172 492 163 490 153 b 485 124 483 101 483 83 b 483 55 487 38 496 26 b 504 15 515 11 523 11 b 523 11 523 11 523 11 b 528 11 531 12 532 12 b 539 14 542 22 540 28 b 538 35 531 39 525 37 l 525 37 b 524 37 524 37 523 37 b 522 37 520 36 516 41 b 513 46 508 58 508 83 b 508 99 510 121 515 149 b 517 160 518 170 518 180 b 518 245 478 285 441 308 b 433 312 425 316 418 319 b 503 342 574 416 590 504 z m 363 337 l 173 337 l 233 675 l 427 675 b 511 675 567 617 567 538 b 567 528 567 519 565 508 b 549 414 457 337 363 337 z"},"T":{"x_min":0,"x_max":648,"ha":648,"o":"m 185 -3 b 186 -3 186 -3 187 -3 b 193 -3 198 1 200 7 l 317 671 l 550 671 b 557 671 562 677 562 684 b 562 691 557 697 550 697 l 62 697 b 55 697 50 691 50 684 b 50 677 55 671 62 671 l 291 671 l 175 12 b 173 5 178 -2 185 -3 z"},"P":{"x_min":0,"x_max":583,"ha":583,"o":"m 116 2 b 117 2 117 2 118 2 b 124 2 129 6 131 12 l 183 313 l 378 313 b 485 313 585 398 604 505 b 606 517 607 528 607 539 b 607 585 590 626 561 655 b 531 684 490 702 442 702 l 238 702 b 238 702 238 702 237 701 b 231 702 226 697 225 691 l 106 17 b 104 10 109 3 116 2 z m 248 676 l 442 676 b 525 676 581 618 582 539 b 582 529 581 520 579 509 b 563 415 471 338 378 338 l 188 338 l 248 676 z"},"|":{"x_min":0,"x_max":286,"ha":286,"o":"m 123 -112 b 121 -124 121 -134 133 -134 b 145 -134 150 -124 152 -112 l 309 778 b 312 790 309 800 297 800 b 285 800 283 790 280 778 l 123 -112 z"},"t":{"x_min":0,"x_max":400,"ha":400,"o":"m 248 490 l 168 490 l 202 689 b 203 696 199 701 192 701 b 185 701 178 696 177 689 l 142 490 l 58 490 b 51 490 45 485 44 478 b 42 471 47 465 54 465 l 138 465 l 69 78 b 62 35 90 1 132 1 b 139 1 146 7 147 14 b 148 21 144 27 137 27 b 108 27 90 49 94 78 l 163 465 l 244 465 b 251 465 257 471 259 478 b 260 485 255 490 248 490 z"},"M":{"x_min":0,"x_max":868,"ha":868,"o":"m 801 698 b 800 698 799 698 798 698 b 794 698 790 697 787 694 l 452 320 l 250 692 b 248 696 244 698 239 698 b 239 698 239 698 239 698 b 239 698 239 698 239 698 b 238 698 238 698 237 698 b 231 698 226 694 224 688 l 105 13 b 104 6 109 0 116 -2 b 117 -2 117 -2 118 -2 b 124 -2 129 2 130 9 l 244 650 l 437 294 b 439 290 444 288 448 288 b 449 288 449 288 450 288 b 451 288 451 288 451 288 b 455 288 458 289 461 292 l 779 647 l 667 13 b 666 6 670 0 677 -2 b 678 -2 679 -2 680 -2 b 686 -2 691 2 692 9 l 811 683 b 812 690 808 697 801 698 z"},"g":{"x_min":0,"x_max":660,"ha":660,"o":"m 487 25 l 526 241 b 526 241 526 241 526 241 b 526 241 526 241 526 242 l 567 474 b 568 481 564 487 557 488 b 550 490 543 485 542 478 l 542 478 l 520 354 b 511 382 496 408 475 430 b 441 467 393 489 336 489 b 208 488 89 379 65 246 b 62 230 61 215 61 200 b 60 143 80 94 115 57 b 150 22 197 -1 254 0 b 344 0 428 53 480 131 l 462 29 b 442 -86 332 -179 218 -179 b 185 -179 158 -171 133 -158 b 127 -155 119 -157 116 -163 b 112 -169 115 -177 121 -180 b 150 -196 181 -204 218 -204 b 346 -204 464 -101 487 25 z m 254 25 b 155 25 86 99 86 200 b 86 214 87 227 90 241 b 111 365 222 463 335 463 b 335 463 336 463 336 463 b 435 463 504 388 504 287 b 504 274 503 260 501 246 l 501 246 b 479 124 368 24 254 25 z"},"j":{"x_min":0,"x_max":249,"ha":249,"o":"m 203 628 l 198 606 b 197 598 201 592 207 591 b 208 591 211 591 211 591 b 216 591 222 595 222 601 l 227 625 b 228 631 223 638 218 639 b 211 640 203 635 203 628 z m 187 490 b 182 491 175 487 173 480 l 173 480 l 68 -119 b 63 -146 35 -170 8 -169 b 1 -169 -5 -176 -5 -183 b -5 -189 1 -194 8 -194 b 47 -194 84 -162 91 -122 l 198 475 b 199 482 194 489 187 490 z"},"i":{"x_min":0,"x_max":281,"ha":281,"o":"m 105 0 b 106 0 107 0 108 0 b 113 0 119 5 120 10 l 201 476 b 203 483 198 489 191 490 b 185 492 178 487 176 481 l 95 15 b 94 8 99 2 105 0 z m 212 592 b 218 592 223 596 224 602 l 229 626 b 230 633 225 640 219 641 b 211 642 205 637 204 631 l 199 607 b 198 599 203 593 209 592 b 210 592 211 592 212 592 z"},"y":{"x_min":0,"x_max":588,"ha":588,"o":"m 496 489 b 489 490 484 486 482 479 l 482 479 l 482 479 l 459 348 l 432 199 b 416 104 323 25 228 26 b 144 26 87 85 87 165 b 87 174 88 184 90 195 l 139 475 b 140 481 136 488 129 489 b 122 490 116 486 114 479 l 65 199 b 62 187 61 176 61 165 b 61 119 79 77 109 48 b 139 18 179 0 228 0 b 302 1 372 40 415 99 l 402 30 b 383 -85 272 -179 158 -178 b 126 -178 97 -171 72 -157 b 66 -154 58 -156 55 -162 b 52 -169 54 -176 60 -180 b 89 -195 122 -204 158 -204 b 286 -203 404 -102 427 26 l 457 195 b 457 195 457 195 457 195 l 506 475 b 508 481 503 488 496 489 z"},"@":{"x_min":0,"x_max":980,"ha":980,"o":"m 499 700 b 306 700 121 543 87 350 b 53 157 182 0 376 0 b 405 0 435 4 464 11 b 471 13 476 19 476 26 b 475 33 469 37 462 35 l 462 35 b 435 29 408 25 380 25 b 201 26 81 171 113 350 b 145 529 315 674 495 675 b 674 674 793 529 762 350 b 753 296 731 246 700 202 b 700 202 698 199 694 195 b 682 180 653 151 621 144 b 616 143 612 143 608 143 b 595 143 589 148 584 156 b 579 164 578 175 580 184 l 579 184 l 607 338 b 607 339 607 340 607 340 b 607 344 608 347 609 350 b 626 450 565 531 469 531 b 374 531 284 450 266 350 b 249 250 310 169 405 169 b 468 169 528 204 567 256 l 554 182 l 554 181 l 554 181 b 552 168 554 153 561 140 b 568 127 583 117 604 117 b 610 117 616 118 622 120 b 681 134 719 189 720 190 b 754 238 777 292 787 350 b 821 543 692 700 499 700 z m 410 194 b 330 194 276 263 291 350 b 307 437 385 506 465 506 b 545 506 599 437 583 350 b 568 263 490 194 410 194 z"},".":{"x_min":0,"x_max":230,"ha":230,"o":"m 132 28 b 132 42 121 53 108 53 b 94 53 82 42 82 28 b 82 15 94 3 108 3 b 121 3 132 15 132 28 z"},"p":{"x_min":0,"x_max":660,"ha":660,"o":"m 228 489 b 221 490 214 486 213 479 l 173 250 b 173 250 173 249 173 249 b 173 249 173 249 173 249 l 94 -200 b 93 -207 97 -213 104 -214 b 105 -215 106 -215 106 -215 b 112 -215 118 -210 119 -204 l 179 139 b 188 110 203 84 224 63 b 260 26 309 4 366 4 b 496 5 618 112 642 245 b 644 260 646 274 646 289 b 646 345 625 395 591 431 b 556 467 505 489 448 489 b 357 489 270 436 218 359 l 239 474 b 240 481 235 488 228 489 z m 447 463 b 447 463 448 463 448 463 b 550 463 620 389 620 289 b 620 276 619 263 617 249 b 596 128 482 29 366 30 b 265 30 195 105 194 206 b 194 219 195 232 198 245 b 218 365 332 463 447 463 z"},"X":{"x_min":0,"x_max":722,"ha":722,"o":"m 408 346 l 708 677 b 713 682 713 690 708 695 b 702 699 694 699 690 694 l 395 369 l 217 691 b 214 697 206 700 200 696 b 194 693 191 685 195 679 l 377 350 l 78 19 b 73 14 73 6 78 1 b 81 -1 84 -2 87 -2 b 90 -2 94 -1 96 2 l 390 326 l 569 4 b 571 0 576 -2 580 -2 b 582 -2 584 -2 586 -1 b 592 3 595 11 591 17 l 408 346 z"},"*":{"x_min":0,"x_max":430,"ha":430,"o":"m 315 79 b 315 76 318 74 322 74 b 325 74 330 76 335 79 b 340 83 341 92 337 98 l 270 176 l 381 176 b 389 176 396 183 399 191 b 399 199 394 205 386 205 l 274 205 l 367 284 b 372 290 373 298 371 304 b 365 309 357 309 351 304 l 258 225 l 276 336 b 277 344 272 350 264 350 b 255 350 248 344 247 336 l 229 225 l 163 304 b 158 309 150 309 144 304 b 135 298 134 290 140 284 l 207 205 l 95 205 b 86 205 79 199 79 191 b 76 183 81 176 90 176 l 200 176 l 110 98 b 103 92 102 83 108 79 b 108 76 113 74 114 74 b 119 74 122 76 127 79 l 218 158 l 200 45 b 199 37 204 30 213 30 b 221 30 228 37 229 45 l 247 157 l 315 79 z"},"Y":{"x_min":0,"x_max":604,"ha":604,"o":"m 196 -2 b 197 -2 198 -2 199 -2 b 205 -2 210 2 211 8 l 269 339 b 270 339 270 339 270 339 l 576 677 b 580 682 580 690 575 695 b 570 699 562 699 557 694 l 260 367 l 80 691 b 77 698 69 700 63 696 b 57 693 54 685 58 679 l 244 343 l 186 13 b 185 6 190 -1 196 -2 z"},"c":{"x_min":0,"x_max":571,"ha":571,"o":"m 58 204 b 58 146 80 94 118 57 b 156 20 210 -2 272 -2 b 331 -2 388 18 436 51 b 442 55 444 63 440 69 b 436 74 428 76 422 72 l 422 72 b 378 42 325 24 272 24 b 160 24 83 101 83 204 b 83 216 84 229 86 241 b 107 363 228 464 354 463 b 407 463 452 445 485 416 b 490 411 498 412 503 417 b 508 422 507 430 502 434 b 464 468 413 489 354 488 b 215 488 86 381 61 246 b 59 231 58 218 58 204 z"},"!":{"x_min":0,"x_max":252,"ha":252,"o":"m 228 702 b 221 703 215 699 213 692 l 122 172 b 120 165 125 158 132 157 b 133 157 133 157 134 157 b 140 157 146 161 147 167 l 238 688 b 240 694 235 701 228 702 z m 113 52 b 106 53 100 48 99 41 l 94 17 b 93 10 98 4 105 3 b 105 2 106 2 107 2 b 113 2 118 7 119 13 l 124 37 b 125 44 120 50 113 52 z"},"/":{"x_min":0,"x_max":500,"ha":500,"o":"m 3 1 l 3 1 b 4 0 7 0 8 0 l 8 0 b 13 0 18 3 19 8 l 304 681 l 304 681 b 306 687 302 695 296 697 l 296 697 b 290 700 282 696 280 690 l -3 18 l -3 18 b -6 11 -3 4 3 1 z"},"[":{"x_min":0,"x_max":430,"ha":430,"o":"m 100 -104 b 98 -118 108 -130 122 -130 l 354 -130 b 364 -130 372 -129 374 -119 b 375 -109 368 -106 358 -106 l 125 -106 l 263 676 l 496 676 b 506 676 514 676 516 686 b 517 696 510 700 500 700 l 268 700 b 254 700 240 688 238 674 l 100 -104 z"},"6":{"x_min":0,"x_max":642,"ha":642,"o":"m 332 455 b 246 455 165 408 114 339 b 131 398 156 457 191 509 b 252 602 339 672 458 676 b 465 677 471 682 470 689 b 470 696 464 702 457 702 b 328 697 233 621 169 523 b 106 426 72 306 64 209 b 64 208 64 208 64 207 b 64 202 64 196 64 191 b 64 138 83 90 118 56 b 152 22 200 2 256 2 b 382 2 499 101 521 226 l 509 228 l 521 226 b 523 240 525 253 525 266 b 525 319 505 367 470 401 b 436 435 388 455 332 455 z m 496 230 b 477 119 368 27 256 27 b 157 27 89 97 89 191 b 89 202 90 214 92 226 b 111 338 220 430 331 430 b 331 430 332 430 332 430 b 431 429 499 359 499 266 b 499 254 498 243 496 230 l 496 230 z"},"r":{"x_min":0,"x_max":439,"ha":439,"o":"m 191 489 b 184 490 177 485 176 478 l 94 13 b 93 7 98 0 104 -1 b 105 -1 106 -1 107 -1 b 113 -1 118 3 119 9 l 160 240 b 162 244 167 256 177 274 b 214 338 304 465 427 464 b 434 464 440 469 440 476 b 440 483 434 489 427 489 b 333 489 261 427 212 368 b 197 349 184 331 173 315 l 201 474 b 202 481 198 487 191 489 z"},"2":{"x_min":0,"x_max":590,"ha":590,"o":"m 373 701 b 320 701 263 682 214 643 l 173 611 b 167 607 166 599 170 593 b 175 588 183 587 188 591 l 188 591 l 230 623 b 274 658 326 675 373 675 b 428 675 477 653 508 611 b 528 583 538 549 538 513 b 538 448 505 378 443 330 l 50 23 b 45 19 44 11 48 6 b 51 2 55 1 58 1 b 59 1 60 1 60 1 b 61 1 61 1 62 1 l 466 1 b 473 1 479 6 479 13 b 479 20 473 26 466 26 l 95 26 l 458 310 b 526 363 564 440 564 513 b 564 554 552 593 528 626 b 492 676 434 701 373 701 z"},"{":{"x_min":0,"x_max":480,"ha":480,"o":"m 333 -154 b 344 -156 353 -158 355 -146 b 357 -138 351 -134 346 -132 b 207 -94 180 -46 197 53 l 211 128 b 226 217 195 250 132 272 b 198 291 246 327 261 416 l 275 491 b 292 590 337 638 488 676 b 495 678 501 681 503 689 b 505 701 494 700 483 698 b 308 664 265 600 247 497 l 233 418 b 219 340 187 291 84 291 b 68 291 59 283 57 272 b 55 261 62 253 78 253 b 181 253 195 204 181 126 l 167 47 b 149 -56 170 -120 333 -154 z"},"9":{"x_min":0,"x_max":642,"ha":642,"o":"m 473 647 b 439 681 390 702 335 702 b 209 701 92 602 70 477 l 70 477 b 67 464 66 451 66 438 b 66 384 86 337 120 303 b 155 269 203 248 259 248 b 345 249 426 295 477 364 b 460 305 434 246 400 194 b 339 101 251 32 133 27 b 126 27 120 21 120 14 b 121 7 126 2 133 2 b 133 2 133 2 134 2 b 262 7 358 83 421 180 b 485 277 519 397 527 494 b 527 495 527 495 527 496 b 527 501 527 507 527 512 b 527 566 507 613 473 647 z m 259 274 b 160 274 92 344 92 438 b 92 449 93 461 95 473 l 82 475 l 95 473 b 114 585 223 677 335 676 b 434 676 502 606 502 512 b 502 501 501 489 499 477 b 479 365 371 273 259 274 z"}," ":{"x_min":0,"x_max":300,"ha":300,"o":""},"I":{"x_min":0,"x_max":305,"ha":305,"o":"m 122 -1 b 123 -1 124 -1 124 -1 b 130 -1 136 3 137 10 l 256 684 b 257 691 252 698 245 699 b 239 700 232 696 231 689 l 112 14 b 111 7 115 1 122 -1 z"},"H":{"x_min":0,"x_max":760,"ha":760,"o":"m 115 -1 b 116 -1 117 -1 117 -1 b 123 -1 129 3 130 10 l 187 336 l 585 336 l 528 14 b 527 7 531 1 538 -1 b 539 -1 540 -1 540 -1 b 547 -1 552 3 553 10 l 672 684 b 673 691 669 698 662 699 b 655 700 648 696 647 689 l 589 361 b 589 361 588 362 587 362 l 192 362 l 249 684 b 250 691 245 698 238 699 b 232 700 225 696 224 689 l 105 14 b 104 7 108 1 115 -1 z"},"4":{"x_min":0,"x_max":664,"ha":664,"o":"m 589 687 b 589 687 589 688 589 689 b 589 690 588 690 588 691 b 588 692 587 693 587 693 b 586 694 586 694 586 694 b 586 694 585 695 585 695 b 584 695 584 696 583 696 b 582 697 581 697 580 697 b 580 697 580 698 579 698 b 579 698 579 698 578 698 b 577 698 576 698 575 698 b 575 697 574 697 573 697 b 572 697 572 696 571 696 b 570 696 570 695 569 695 b 569 694 568 694 568 694 l 52 168 b 47 163 47 155 52 150 b 55 148 58 147 61 147 b 62 147 62 147 62 147 b 63 147 63 147 63 147 l 469 147 l 446 13 b 444 6 449 -1 456 -2 b 457 -2 457 -2 458 -2 b 464 -2 469 2 471 8 l 495 147 l 559 147 b 566 147 572 152 572 159 b 572 166 566 172 559 172 l 499 172 l 590 683 b 590 683 589 684 589 684 b 590 685 590 686 589 687 z m 91 172 l 557 647 l 474 172 l 91 172 z"},"~":{"x_min":0,"x_max":460,"ha":460,"o":"m 117 253 b 129 280 143 292 165 292 b 201 292 257 253 293 253 b 332 253 359 281 372 321 b 373 324 374 330 374 333 b 374 343 366 350 356 350 b 347 350 346 339 343 333 b 331 306 315 290 293 290 b 259 290 203 328 165 328 b 138 328 99 299 89 268 b 88 265 85 257 85 254 b 85 244 91 241 101 241 b 111 241 114 247 117 253 z"},"D":{"x_min":0,"x_max":719,"ha":719,"o":"m 116 -2 b 117 -2 117 -2 118 -2 b 118 -2 118 -2 118 -2 b 119 -2 119 -2 119 -2 l 253 -2 b 446 -2 628 153 662 345 b 666 366 668 387 668 407 b 668 489 637 562 585 614 b 532 666 458 698 372 698 l 238 698 b 237 698 237 697 237 697 b 231 697 226 693 224 687 l 106 12 b 104 6 109 -1 116 -2 z m 248 672 l 372 672 b 532 672 642 558 642 407 b 642 388 641 369 637 350 b 606 170 432 23 253 23 l 133 23 l 248 672 z"},"0":{"x_min":0,"x_max":710,"ha":710,"o":"m 371 700 b 235 698 107 542 73 352 b 67 321 65 292 65 264 b 65 189 83 124 115 77 b 147 29 195 0 251 0 b 252 0 252 0 252 0 b 387 1 516 157 550 347 b 555 378 558 408 558 436 b 558 510 540 575 508 623 b 476 670 428 700 371 700 z m 525 352 b 493 169 366 24 252 25 b 204 25 165 49 136 91 b 107 133 90 193 90 264 b 90 290 93 318 98 347 b 129 529 255 674 369 674 b 370 674 370 674 371 674 b 419 674 458 650 487 608 b 515 566 532 506 532 436 b 532 409 530 381 525 352 z"},"F":{"x_min":0,"x_max":600,"ha":600,"o":"m 116 -1 b 117 -1 117 -1 118 -1 b 124 -1 129 3 130 9 l 188 336 l 508 336 b 515 336 520 342 520 349 b 520 356 515 361 508 361 l 193 361 l 248 673 l 610 673 b 617 673 623 679 623 686 b 623 693 617 699 610 699 l 239 699 b 239 699 238 698 238 698 b 232 699 226 695 224 688 l 105 13 b 104 7 109 0 116 -1 z"},"`":{"x_min":0,"x_max":500,"ha":500,"o":"m 271 598 b 277 595 278 596 278 601 b 278 605 276 609 274 612 l 212 705 b 204 717 196 723 184 723 b 165 723 169 713 166 708 b 163 703 170 696 176 690 l 247 613 b 258 601 261 602 271 598 z"},"k":{"x_min":0,"x_max":560,"ha":560,"o":"m 542 493 b 537 498 529 499 524 494 l 147 173 l 238 688 b 239 695 234 702 227 703 b 221 704 214 699 213 693 l 94 18 b 93 11 97 4 104 3 b 105 3 106 3 106 3 b 112 3 118 7 119 14 l 140 136 b 142 136 143 137 144 138 l 280 254 l 439 9 b 441 5 446 3 450 3 b 452 3 454 4 457 5 b 462 9 464 17 460 23 l 300 270 l 541 475 b 546 479 547 487 542 493 z"},"u":{"x_min":0,"x_max":613,"ha":613,"o":"m 518 489 b 512 490 505 485 504 478 l 504 478 l 454 199 b 438 103 345 24 251 25 b 166 25 109 84 109 164 b 109 174 109 184 111 195 l 161 474 b 162 481 157 487 151 489 b 144 490 137 485 136 478 l 87 199 b 84 187 83 176 83 164 b 83 118 101 77 131 47 b 160 17 202 0 251 0 b 358 0 460 86 479 195 l 529 474 b 530 481 525 487 518 489 z"},"]":{"x_min":0,"x_max":430,"ha":430,"o":"m 472 674 b 474 688 464 700 450 700 l 218 700 b 208 700 200 699 198 689 b 197 679 204 676 214 676 l 447 676 l 309 -106 l 76 -106 b 66 -106 58 -106 56 -116 b 55 -126 62 -130 72 -130 l 304 -130 b 318 -130 332 -118 334 -104 z"},"U":{"x_min":0,"x_max":814,"ha":814,"o":"m 206 683 b 207 690 202 696 196 698 b 189 699 182 694 181 687 l 109 280 b 106 264 105 247 105 231 b 105 165 129 107 171 65 b 213 23 273 -2 342 -2 b 497 -2 642 122 669 276 l 741 683 b 742 690 738 696 731 698 b 724 699 717 694 716 687 l 644 280 b 620 139 483 23 342 23 b 217 24 131 112 130 231 b 130 246 131 261 134 276 l 206 683 z"},"o":{"x_min":0,"x_max":625,"ha":625,"o":"m 540 288 b 540 345 520 396 486 432 b 452 468 403 490 346 490 b 218 490 98 381 74 247 b 71 232 70 217 70 202 b 70 145 90 95 124 58 b 158 22 207 0 264 0 b 392 1 512 109 536 243 l 524 245 l 536 243 b 539 258 540 273 540 288 z m 511 247 b 490 125 377 25 264 25 b 164 26 95 100 95 202 b 95 215 96 229 99 243 b 120 365 232 465 345 465 b 345 465 346 465 346 465 b 446 465 514 390 515 288 b 515 275 514 261 511 247 z"},"N":{"x_min":0,"x_max":790,"ha":790,"o":"m 106 17 b 104 10 109 4 116 2 b 117 2 117 2 118 2 b 124 2 129 6 130 13 l 243 652 l 591 12 b 592 11 592 10 593 9 b 595 6 598 3 602 2 b 603 2 604 2 605 2 b 611 2 616 6 617 13 l 735 684 b 737 690 732 697 725 698 b 718 699 712 695 710 688 l 598 52 l 248 696 b 245 702 237 704 231 701 b 227 698 225 694 225 690 b 224 689 224 689 224 688 l 106 17 z"},"+":{"x_min":0,"x_max":620,"ha":620,"o":"m 250 116 b 248 106 254 98 265 98 b 273 98 283 106 285 116 l 326 327 l 538 327 b 546 327 557 335 559 345 b 561 355 553 362 545 362 l 333 362 l 374 574 b 376 584 369 591 361 591 b 350 591 341 584 339 574 l 298 362 l 87 362 b 76 362 68 355 66 345 b 64 335 69 327 80 327 l 291 327 l 250 116 z"},"G":{"x_min":0,"x_max":800,"ha":800,"o":"m 378 0 b 463 0 545 28 614 75 b 616 76 617 78 618 80 b 619 82 620 83 620 85 l 664 332 b 665 339 660 346 653 347 b 652 347 651 347 650 347 b 650 347 649 347 649 347 l 429 347 b 422 347 417 341 417 334 b 417 327 422 322 429 322 l 636 322 l 596 94 b 531 50 455 25 378 25 b 213 25 99 140 99 292 b 99 310 100 329 104 347 b 135 527 312 675 497 674 b 576 674 643 648 692 604 b 697 599 705 600 710 605 b 714 610 714 618 709 623 b 655 671 582 700 497 700 b 299 699 113 545 79 352 b 75 331 73 312 73 292 b 73 209 105 136 159 83 b 213 31 290 0 378 0 z"},"q":{"x_min":0,"x_max":660,"ha":660,"o":"m 438 -215 b 439 -216 440 -216 440 -216 b 446 -216 452 -211 453 -205 l 532 244 b 532 244 532 244 533 244 b 533 244 533 244 533 244 l 573 474 b 574 480 569 487 563 488 b 556 489 549 485 548 478 l 526 354 b 517 383 502 410 480 431 b 446 467 396 488 339 488 b 209 488 87 381 63 248 b 61 234 60 219 60 204 b 60 148 80 98 115 62 b 150 25 200 3 257 3 b 349 3 435 57 486 134 l 428 -201 b 427 -208 431 -214 438 -215 z m 257 29 b 156 29 85 104 85 204 b 85 218 86 231 88 244 l 76 246 l 88 244 b 109 364 223 464 339 463 b 440 463 511 389 511 288 b 511 275 510 262 508 248 b 486 127 373 28 257 29 z"},"d":{"x_min":0,"x_max":660,"ha":660,"o":"m 261 -3 b 353 -2 442 51 493 130 l 473 12 b 472 5 476 -1 483 -2 b 484 -2 485 -2 486 -2 b 492 -2 497 2 498 8 l 620 686 b 621 693 617 699 610 700 b 602 701 596 697 595 690 l 533 353 b 524 383 509 409 487 430 b 452 467 401 490 344 490 b 212 489 88 381 64 246 b 62 231 60 216 60 201 b 60 144 80 93 116 56 b 152 19 203 -3 261 -3 z m 89 241 b 111 364 226 464 344 463 b 447 463 517 388 518 286 b 518 272 517 259 514 246 l 514 246 b 492 124 378 22 261 23 b 157 23 86 99 86 201 b 86 215 87 228 89 241 z"},"1":{"x_min":0,"x_max":335,"ha":335,"o":"m 213 690 b 212 691 212 692 212 693 b 212 693 212 694 211 694 b 211 694 211 694 211 695 b 210 695 210 696 209 697 b 209 697 208 698 208 698 b 207 699 206 699 206 699 b 205 700 204 700 203 700 b 203 700 203 701 202 701 b 202 701 201 701 201 701 b 200 701 199 701 198 701 b 197 700 196 700 196 700 b 195 700 195 700 194 699 l 38 616 b 32 612 30 605 33 598 b 35 594 40 592 44 592 b 46 592 48 592 50 593 l 183 665 l 69 16 b 67 9 72 2 79 1 b 80 1 80 1 81 1 b 87 1 93 5 94 11 l 213 686 b 213 686 213 687 213 687 b 213 688 213 689 213 690 z"},"5":{"x_min":0,"x_max":605,"ha":605,"o":"m 558 701 l 219 701 b 217 701 215 700 213 698 b 209 697 206 694 205 690 l 117 394 b 117 392 117 390 117 387 b 118 385 119 383 120 381 b 125 375 133 375 139 379 b 187 421 244 441 298 441 b 351 441 399 421 431 381 b 457 351 469 313 469 273 b 469 209 437 139 378 88 b 329 47 272 27 219 27 b 166 27 117 47 85 86 b 80 92 72 93 67 88 b 61 83 60 75 65 70 l 65 70 b 103 24 159 1 218 1 b 219 1 219 1 219 1 b 279 1 342 23 395 68 b 460 124 495 200 495 273 b 495 318 481 362 452 398 b 414 444 357 467 298 467 b 249 467 199 452 153 422 l 228 675 l 558 675 b 566 675 571 680 571 688 b 571 695 566 701 558 701 z"}}}
